REM DIRINDEX 1\3,1\2\4,1\2\5,1\2\6
REM DIRNAME folder01,folder02,folder03,folder04,folder05,folder06
TITLE ""
FILE "028.mp3" MP3
  TRACK 01 AUDIO
    TITLE "4:cjc137_1137"
    INDEX 01 00:00:00
  TRACK 02 AUDIO
    TITLE "0:"
    INDEX 01 00:00:72
  TRACK 03 AUDIO
    TITLE "6:cjc137_1138"
    INDEX 01 00:01:07
  TRACK 04 AUDIO
    TITLE "0:"
    INDEX 01 00:02:08
  TRACK 05 AUDIO
    TITLE "5:cjc137_1139"
    INDEX 01 00:02:14
  TRACK 06 AUDIO
    TITLE "0:"
    INDEX 01 00:03:10
  TRACK 07 AUDIO
    TITLE "4:cjc137_1140"
    INDEX 01 00:04:21
  TRACK 08 AUDIO
    TITLE "0:"
    INDEX 01 00:05:22
  TRACK 09 AUDIO
    TITLE "6:cjc137_1141"
    INDEX 01 00:05:30
  TRACK 10 AUDIO
    TITLE "0:"
    INDEX 01 00:06:41
  TRACK 11 AUDIO
    TITLE "5:cjc137_1142"
    INDEX 01 00:06:49
  TRACK 12 AUDIO
    TITLE "0:"
    INDEX 01 00:07:51
  TRACK 13 AUDIO
    TITLE "4:cjc137_1143"
    INDEX 01 00:08:56
  TRACK 14 AUDIO
    TITLE "0:"
    INDEX 01 00:09:63
  TRACK 15 AUDIO
    TITLE "6:cjc137_1144"
    INDEX 01 00:09:71
  TRACK 16 AUDIO
    TITLE "0:"
    INDEX 01 00:11:09
  TRACK 17 AUDIO
    TITLE "5:cjc137_1145"
    INDEX 01 00:11:17
  TRACK 18 AUDIO
    TITLE "0:"
    INDEX 01 00:12:26
  TRACK 19 AUDIO
    TITLE "4:cjc137_1146"
    INDEX 01 00:13:33
  TRACK 20 AUDIO
    TITLE "0:"
    INDEX 01 00:14:39
  TRACK 21 AUDIO
    TITLE "6:cjc137_1147"
    INDEX 01 00:14:47
  TRACK 22 AUDIO
    TITLE "0:"
    INDEX 01 00:15:66
  TRACK 23 AUDIO
    TITLE "5:cjc137_1148"
    INDEX 01 00:15:74
  TRACK 24 AUDIO
    TITLE "0:"
    INDEX 01 00:17:04
  TRACK 25 AUDIO
    TITLE "4:cjc137_1149"
    INDEX 01 00:18:13
  TRACK 26 AUDIO
    TITLE "0:"
    INDEX 01 00:19:30
  TRACK 27 AUDIO
    TITLE "6:cjc137_1150"
    INDEX 01 00:19:36
  TRACK 28 AUDIO
    TITLE "0:"
    INDEX 01 00:20:47
  TRACK 29 AUDIO
    TITLE "5:cjc137_1151"
    INDEX 01 00:20:53
  TRACK 30 AUDIO
    TITLE "0:"
    INDEX 01 00:21:70
  TRACK 31 AUDIO
    TITLE "4:cjc137_1152"
    INDEX 01 00:23:01
  TRACK 32 AUDIO
    TITLE "0:"
    INDEX 01 00:24:10
  TRACK 33 AUDIO
    TITLE "6:cjc137_1153"
    INDEX 01 00:24:18
  TRACK 34 AUDIO
    TITLE "0:"
    INDEX 01 00:25:27
  TRACK 35 AUDIO
    TITLE "5:cjc137_1154"
    INDEX 01 00:25:35
  TRACK 36 AUDIO
    TITLE "0:"
    INDEX 01 00:26:42
  TRACK 37 AUDIO
    TITLE "4:cjc137_1155"
    INDEX 01 00:27:51
  TRACK 38 AUDIO
    TITLE "0:"
    INDEX 01 00:28:62
  TRACK 39 AUDIO
    TITLE "6:cjc137_1156"
    INDEX 01 00:28:68
  TRACK 40 AUDIO
    TITLE "0:"
    INDEX 01 00:29:52
  TRACK 41 AUDIO
    TITLE "5:cjc137_1157"
    INDEX 01 00:29:62
  TRACK 42 AUDIO
    TITLE "0:"
    INDEX 01 00:30:73
  TRACK 43 AUDIO
    TITLE "4:cjc137_1158"
    INDEX 01 00:32:05
  TRACK 44 AUDIO
    TITLE "0:"
    INDEX 01 00:33:19
  TRACK 45 AUDIO
    TITLE "6:cjc137_1159"
    INDEX 01 00:33:24
  TRACK 46 AUDIO
    TITLE "0:"
    INDEX 01 00:34:42
  TRACK 47 AUDIO
    TITLE "5:cjc137_1160"
    INDEX 01 00:34:49
  TRACK 48 AUDIO
    TITLE "0:"
    INDEX 01 00:35:63
  TRACK 49 AUDIO
    TITLE "4:cjc137_1161"
    INDEX 01 00:36:68
  TRACK 50 AUDIO
    TITLE "0:"
    INDEX 01 00:37:73
  TRACK 51 AUDIO
    TITLE "6:cjc137_1162"
    INDEX 01 00:38:04
  TRACK 52 AUDIO
    TITLE "0:"
    INDEX 01 00:38:67
  TRACK 53 AUDIO
    TITLE "5:cjc137_1163"
    INDEX 01 00:38:73
  TRACK 54 AUDIO
    TITLE "0:"
    INDEX 01 00:40:01
  TRACK 55 AUDIO
    TITLE "4:cjc137_1164"
    INDEX 01 00:41:08
  TRACK 56 AUDIO
    TITLE "0:"
    INDEX 01 00:42:18
  TRACK 57 AUDIO
    TITLE "6:cjc137_1165"
    INDEX 01 00:42:27
  TRACK 58 AUDIO
    TITLE "0:"
    INDEX 01 00:43:46
  TRACK 59 AUDIO
    TITLE "5:cjc137_1166"
    INDEX 01 00:43:54
  TRACK 60 AUDIO
    TITLE "0:"
    INDEX 01 00:44:61
  TRACK 61 AUDIO
    TITLE "4:cjc137_1167"
    INDEX 01 00:45:73
  TRACK 62 AUDIO
    TITLE "0:"
    INDEX 01 00:47:01
  TRACK 63 AUDIO
    TITLE "6:cjc137_1168"
    INDEX 01 00:47:09
  TRACK 64 AUDIO
    TITLE "0:"
    INDEX 01 00:47:70
  TRACK 65 AUDIO
    TITLE "5:cjc137_1169"
    INDEX 01 00:48:02
  TRACK 66 AUDIO
    TITLE "0:"
    INDEX 01 00:49:04
  TRACK 67 AUDIO
    TITLE "4:cjc137_1170"
    INDEX 01 00:50:15
  TRACK 68 AUDIO
    TITLE "0:"
    INDEX 01 00:51:22
  TRACK 69 AUDIO
    TITLE "6:cjc137_1171"
    INDEX 01 00:51:30
  TRACK 70 AUDIO
    TITLE "0:"
    INDEX 01 00:52:30
  TRACK 71 AUDIO
    TITLE "5:cjc137_1172"
    INDEX 01 00:52:37
  TRACK 72 AUDIO
    TITLE "0:"
    INDEX 01 00:53:45
  TRACK 73 AUDIO
    TITLE "4:cjc137_1173"
    INDEX 01 00:54:56
  TRACK 74 AUDIO
    TITLE "0:"
    INDEX 01 00:55:63
  TRACK 75 AUDIO
    TITLE "6:cjc137_1174"
    INDEX 01 00:56:00
  TRACK 76 AUDIO
    TITLE "0:"
    INDEX 01 00:56:67
  TRACK 77 AUDIO
    TITLE "5:cjc137_1175"
    INDEX 01 00:57:01
  TRACK 78 AUDIO
    TITLE "0:"
    INDEX 01 00:58:07
  TRACK 79 AUDIO
    TITLE "4:cjc137_1176"
    INDEX 01 00:59:22
  TRACK 80 AUDIO
    TITLE "0:"
    INDEX 01 01:00:25
  TRACK 81 AUDIO
    TITLE "6:cjc137_1177"
    INDEX 01 01:00:37
  TRACK 82 AUDIO
    TITLE "0:"
    INDEX 01 01:01:48
  TRACK 83 AUDIO
    TITLE "5:cjc137_1178"
    INDEX 01 01:01:56
  TRACK 84 AUDIO
    TITLE "0:"
    INDEX 01 01:02:59
